<svg xmlns="http://www.w3.org/2000/svg" width="646" height="606" viewBox="0 0 646 606">
    <path fill="#1E2434" fill-rule="evenodd" d="M147.244 479.743c1.87 5.35 4.314 9.253 6.745 12.757 3.364 4.85 6.898 8.65 10.62 11.904 8.008 7.001 16.915 11.887 33.467 15.073l390.961 84.136c29.8 5.736 48.883 1.234 68.855-21.741l257.596-296.33c19.973-22.976 15.014-45.32 5.08-74.123L782.005-165.625c-1.226-3.507-2.213-6.246-3.575-8.684-3.04-5.442-6.15-9.218-10.765-13.228-6.68-5.808-13.319-11.516-31.345-14.986L354.11-286.63c-29.8-5.736-61.006-9.195-80.978 13.78L14.95 25.231C-5.023 48.206-1.443 77.535 8.491 106.338l138.753 373.405z"/>
</svg>
